<?xml version="1.0" encoding="utf-8"?>
<!-- Generator: Adobe Illustrator 21.0.0, SVG Export Plug-In . SVG Version: 6.00 Build 0)  -->
<svg version="1.1" id="图层_1" xmlns="http://www.w3.org/2000/svg" xmlns:xlink="http://www.w3.org/1999/xlink" x="0px" y="0px"
	 viewBox="0 0 250 250" style="enable-background:new 0 0 250 250;" xml:space="preserve">
<style type="text/css">
	.st0{fill:#979B9E;}
</style>
<path class="st0" d="M246.3,118.3c-17.9-17.9-76.5-76.5-76.6-76.6l-38-38c-1.8-1.8-4.1-2.8-6.6-2.8c-2.5,0-4.9,1-6.7,2.8L88.5,36.5
	V25.7c0-2.5-1-4.9-2.7-6.6c-1.8-1.8-4.1-2.7-6.6-2.7c0,0,0,0,0,0H48.6c0,0,0,0,0,0c-2.5,0-4.9,1-6.6,2.7c-1.8,1.8-2.7,4.1-2.7,6.6
	v60.4L3.7,123.8c-3.6,3.6-3.6,9.4,0.2,13.1c1.8,1.8,4,2.8,6.3,3c2.4,0.1,4.7-0.8,6.6-2.6l7.2-7.8V232c0,9.4,7.6,17,17,17h168.1
	c9.4,0,17-7.6,17-17V124.6l7.1,7.1c3.6,3.6,9.3,3.4,13-0.3c1.8-1.8,2.8-4.2,2.8-6.7C249,122.3,248,120,246.3,118.3z M138.5,230.3
	h-27.1v-57.6h27.1L138.5,230.3z M58,67.3V35.1h11.8v20.5L58,67.3z M154.6,156.6c-1.7-1.7-4.2-2.7-6.6-2.7c0,0,0,0,0,0h-45.8
	c0,0,0,0,0,0c-2.5,0-4.9,1-6.6,2.7c-1.8,1.8-2.7,4.1-2.7,6.6v67H48.6c-1.6,0-3.1-0.6-4.2-1.7c-1.1-1.1-1.7-2.6-1.7-4.2V110.5
	l82.4-86.8l82.2,82.2v118.5c0,1.6-0.6,3.1-1.7,4.2c-1.1,1.1-2.6,1.7-4.2,1.7h-44.1v-67C157.3,160.7,156.3,158.4,154.6,156.6z"/>
</svg>
