<?xml version="1.0" encoding="utf-8"?>
<!-- Generator: Adobe Illustrator 21.0.0, SVG Export Plug-In . SVG Version: 6.00 Build 0)  -->
<svg version="1.1" id="图层_1" xmlns="http://www.w3.org/2000/svg" xmlns:xlink="http://www.w3.org/1999/xlink" x="0px" y="0px"
	 viewBox="0 0 250 250" style="enable-background:new 0 0 250 250;" xml:space="preserve">
<style type="text/css">
	.st0{fill:#0B0F12;}
</style>
<path class="st0" d="M246.3,3.7c-2.7-2.7-6.8-3.4-10.3-1.9L6.5,103.6c-3.8,1.7-6,5.6-5.4,9.7c0.6,4.1,3.7,7.3,7.9,7.9l105,14.7
	L128.7,241c0.6,4.1,3.7,7.2,7.7,7.8c0.6,0.2,1.1,0.2,1.5,0.2c3.6,0,6.8-2,8.5-5.4L248.2,13.9C249.7,10.4,248.9,6.4,246.3,3.7z
	 M221.9,28.2l-79.2,178.5l-11.3-80.2c-0.6-4.1-3.7-7.3-7.9-7.9l-80.1-11.3L221.9,28.2z"/>
</svg>
