<?xml version="1.0" encoding="utf-8"?>
<!-- Generator: Adobe Illustrator 21.0.0, SVG Export Plug-In . SVG Version: 6.00 Build 0)  -->
<svg version="1.1" id="图层_1" xmlns="http://www.w3.org/2000/svg" xmlns:xlink="http://www.w3.org/1999/xlink" x="0px" y="0px"
	 viewBox="0 0 250 250" style="enable-background:new 0 0 250 250;" xml:space="preserve">
<style type="text/css">
	.st0{fill:#979B9E;}
</style>
<path class="st0" d="M248.7,97.8c-1.8-6.9-7.8-12.1-14.9-13l-63.6-11.1l-28.4-57.8c-2.7-6.3-9.6-10.7-16.7-10.7
	c-6.9,0-13.5,4.2-16.7,10.7L79.9,73.6L16.3,85.1C9.1,86.1,3.4,90.9,1,98.2c-1.9,6.7,0.1,14.5,5.1,19.5l45.8,42.7l-12,62.2
	c-1.3,6.8,1.6,14.3,7.4,18.6c3,2.3,6.9,3.5,10.9,3.5c3,0,6-0.7,8.6-2.1l58.3-28.9l57.8,28.9c3,1.5,6.2,2.3,8.8,2.3
	c4.1,0,7.9-1.3,10.7-3.7c5.9-4.4,8.7-11.5,7.4-18.6l-11.6-62.2l45.8-43.1C249.2,112.1,251,104.6,248.7,97.8z M125.2,23.3L125.2,23.3
	c0.1,0,0.1,0,0.1,0.1c0,0,0,0,0,0.1c0.1,0.1,0.1,0.3,0.2,0.4l28.6,58.1c2.4,5,7.2,8.5,12.7,9.5l63.9,11.2l0.5,0.1
	c0.1,0.3,0.2,0.5,0.2,0.8c0.1,0.2,0.2,0.5-0.1,0.8l-45.7,43.1c-4.4,4.1-6.3,10.1-5.2,15.9l11.6,62.5l0,0.1c0,0.2-0.2,0.5-0.4,0.7
	c-0.2-0.1-0.3-0.1-0.5-0.2l-58.1-29.1c-2.5-1.2-5.1-1.9-7.8-1.9c-2.7,0-5.3,0.6-7.8,1.8l-58.5,29c-0.1,0-0.2,0.1-0.3,0.2
	c0,0-0.1,0-0.1,0.1l0,0c-0.1,0-0.1,0-0.2,0c-0.2-0.2-0.3-0.5-0.4-0.6l12.1-62.5c1.1-6-0.8-12-5.2-16.1l-45.7-42.5
	c-0.2-0.3-0.4-0.9-0.4-1.4c0-0.1,0.1-0.2,0.1-0.2c0.3,0,0.7-0.1,0.9-0.1l63.9-11.6c5.4-1,10.1-4.5,12.6-9.5l28.6-58.1
	C124.8,23.5,125.1,23.4,125.2,23.3z"/>
</svg>
