<?xml version="1.0" encoding="utf-8"?>
<!-- Generator: Adobe Illustrator 21.0.0, SVG Export Plug-In . SVG Version: 6.00 Build 0)  -->
<svg version="1.1" id="图层_1" xmlns="http://www.w3.org/2000/svg" xmlns:xlink="http://www.w3.org/1999/xlink" x="0px" y="0px"
	 viewBox="0 0 250 250" style="enable-background:new 0 0 250 250;" xml:space="preserve">
<style type="text/css">
	.st0{fill:#D34D39;}
</style>
<g id="zuobiao">
	<path id="形状" class="st0" d="M125,1C69.4,1,24.3,47,24.3,103.7c0,28.4,11.3,54,29.5,72.6L125,249l71.2-72.6
		c18.9-19.3,29.6-45.4,29.5-72.6C225.7,47,180.6,1,125,1z M125,149.4c-11.9,0-23.3-4.9-31.7-13.4s-13.1-20.2-13.1-32.2
		c0-12.1,4.7-23.7,13.1-32.2s19.8-13.4,31.7-13.4c11.9,0,23.3,4.9,31.7,13.4c8.4,8.6,13.1,20.2,13.1,32.2c0,12.1-4.7,23.7-13.1,32.2
		S136.9,149.3,125,149.4L125,149.4z"/>
</g>
</svg>
