<?xml version="1.0" encoding="utf-8"?>
<!-- Generator: Adobe Illustrator 21.0.0, SVG Export Plug-In . SVG Version: 6.00 Build 0)  -->
<svg version="1.1" id="图层_1" xmlns="http://www.w3.org/2000/svg" xmlns:xlink="http://www.w3.org/1999/xlink" x="0px" y="0px"
	 viewBox="0 0 250 250" style="enable-background:new 0 0 250 250;" xml:space="preserve">
<style type="text/css">
	.st0{fill:#979B9E;}
</style>
<g>
	<path class="st0" d="M125,1C56.5,1,1,56.5,1,125s55.5,124,124,124s124-55.5,124-124S193.5,1,125,1z M125,229.4
		c-57.6,0-104.4-46.8-104.4-104.4S67.4,20.6,125,20.6S229.4,67.4,229.4,125C229.4,182.6,182.6,229.4,125,229.4z"/>
	<path class="st0" d="M186.3,163.6l-51.5-43.2V53.2c0-5.4-4.4-9.8-9.8-9.8s-9.8,4.4-9.8,9.8V125c0,0.2,0,0.3,0.1,0.5
		c0,0.3,0,0.5,0.1,0.8c0,0.4,0.1,0.7,0.2,1.1c0.1,0.3,0.2,0.5,0.2,0.8c0.1,0.3,0.2,0.6,0.4,0.9c0.1,0.3,0.3,0.6,0.5,0.9
		c0.1,0.2,0.3,0.5,0.4,0.7c0.2,0.3,0.5,0.6,0.7,0.9c0.2,0.2,0.4,0.4,0.6,0.6c0.1,0.1,0.2,0.3,0.4,0.4l55,46.1
		c1.8,1.5,4.1,2.3,6.3,2.3c2.8,0,5.6-1.2,7.5-3.5C191,173.3,190.4,167.1,186.3,163.6z"/>
</g>
</svg>
