<?xml version="1.0" encoding="utf-8"?>
<!-- Generator: Adobe Illustrator 21.0.0, SVG Export Plug-In . SVG Version: 6.00 Build 0)  -->
<svg version="1.1" id="图层_1" xmlns="http://www.w3.org/2000/svg" xmlns:xlink="http://www.w3.org/1999/xlink" x="0px" y="0px"
	 viewBox="0 0 250 250" style="enable-background:new 0 0 250 250;" xml:space="preserve">
<style type="text/css">
	.st0{fill:#5d009c;}
</style>
<g>
	<path class="st0" d="M125,131.2c22,0,40.6-18.6,40.6-40.6S147,49.9,125,49.9S84.4,68.5,84.4,90.5S103,131.2,125,131.2z M125,65.2
		c13.7,0,25.4,11.6,25.4,25.4s-11.6,25.4-25.4,25.4s-25.4-11.6-25.4-25.4S111.3,65.2,125,65.2z"/>
	<path class="st0" d="M174.3,170.9l8.6-9.7l0.1-0.1c9.4-12.2,16-21.6,19.6-28c0-0.1,0.1-0.2,0.2-0.4c3.5-6.6,11.8-23.9,11.8-42.3
		C214.5,41.2,174.4,1,125,1S35.5,41.2,35.5,90.5c0,20.8,10.1,39.7,12,42.7l0,0c4.9,8.7,14,21.2,19.6,28l8.7,9.9
		c-32.9,7-52.1,20.3-52.1,36.7c0,26.8,52.2,41.2,101.3,41.2c50.3,0,101.3-14.4,101.3-41.8C226.3,191.2,206.6,177.7,174.3,170.9z
		 M125,233.1c-52.5,0-86-15.4-86-25.9c0-7.4,16.9-17.9,48.2-23.2l21.8,24.9c4.2,4.9,10,7.7,16.1,7.7c6,0,12.3-3.3,16.1-8.3
		l21.7-24.5c33.3,5.5,48.2,16.9,48.2,23.4C211,216.5,182.3,233.1,125,233.1z M125,16.3c40.9,0,74.3,33.3,74.3,74.3
		c0,17-9.7,34.3-9.8,34.4c-4.9,8-13,19.5-18.1,25.7l-41.8,47.7c-1.7,1.7-3.1,2.4-4.6,2.4c-1.8,0-3.1-0.4-4.5-2.2l-41.9-47.8
		c-5-6.1-14-18-18.1-25.7c-0.1-0.2-9.8-16.9-9.8-34.5C50.7,49.6,84.1,16.3,125,16.3z"/>
</g>
</svg>
