<?xml version="1.0" encoding="utf-8"?>
<!-- Generator: Adobe Illustrator 21.0.0, SVG Export Plug-In . SVG Version: 6.00 Build 0)  -->
<svg version="1.1" id="图层_1" xmlns="http://www.w3.org/2000/svg" xmlns:xlink="http://www.w3.org/1999/xlink" x="0px" y="0px"
	 viewBox="0 0 250 250" style="enable-background:new 0 0 250 250;" xml:space="preserve">
<style type="text/css">
	.st0{fill:#9D89AB;}
</style>
<g id="shanchu">
	<path id="路径" class="st0" d="M125,160l81.7,81.7c6.3,6.3,15.4,8.7,23.9,6.4c8.5-2.3,15.2-9,17.5-17.5
		c2.3-8.5-0.2-17.7-6.4-23.9L160,125l81.7-81.7c6.3-6.3,8.7-15.4,6.4-23.9c-2.3-8.5-9-15.2-17.5-17.5c-8.5-2.3-17.7,0.2-23.9,6.4
		L125,89.9L43.2,8.2C37,2,27.9-0.5,19.3,1.8s-15.2,9-17.5,17.5S2,37,8.2,43.2L89.9,125L8.2,206.7c-6.3,6.3-8.7,15.4-6.4,23.9
		c2.3,8.5,9,15.2,17.5,17.5c8.5,2.3,17.7-0.2,23.9-6.4L125,160L125,160z"/>
</g>
</svg>
