<?xml version="1.0" encoding="utf-8"?>
<!-- Generator: Adobe Illustrator 21.0.0, SVG Export Plug-In . SVG Version: 6.00 Build 0)  -->
<svg version="1.1" id="图层_1" xmlns="http://www.w3.org/2000/svg" xmlns:xlink="http://www.w3.org/1999/xlink" x="0px" y="0px"
	 viewBox="0 0 250 250" style="enable-background:new 0 0 250 250;" xml:space="preserve">
<style type="text/css">
	.st0{fill:'inherit';}
</style>
<g id="shangpu-">
	<path id="形状" class="st0" d="M39.5,35.8H210c6.4,0,11.6-5.2,11.6-11.6s-5.2-11.6-11.6-11.6H39.5c-6.4,0-11.6,5.2-11.6,11.6
		S33.1,35.8,39.5,35.8z M227,47.5H22.6L0.8,105.6c0,17.1,13.9,31,31,31s31-13.9,31-31c0,17.1,13.9,31,31,31s31-13.9,31-31
		c0,17.1,13.9,31,31,31s31-13.9,31-31c0,17.1,13.9,31,31,31s31-13.9,31-31L227,47.5L227,47.5z M213.9,148L213.9,148
		c-1.1-0.1-2.2-0.3-3.3-0.5c-0.2,0-0.5-0.1-0.7-0.1c-0.5-0.1-1-0.2-1.5-0.3c-2.1-0.5-4.2-1.1-6.1-1.8v57.2h-155v-57.2
		c-2,0.8-4,1.4-6.1,1.9c-0.5,0.1-1,0.2-1.5,0.3c-0.2,0-0.5,0.1-0.7,0.1c-1.1,0.2-2.2,0.3-3.3,0.4v0c-1.3,0.1-2.6,0.2-3.9,0.2
		c-2.7,0-5.2-0.3-7.7-0.7v78.2c0,6.4,5.2,11.6,11.6,11.6h178.2c6.4,0,11.6-5.2,11.6-11.6v-78.2c-2.5,0.5-5.1,0.7-7.7,0.7
		C216.5,148.2,215.2,148.2,213.9,148L213.9,148z"/>
</g>
</svg>
