<?xml version="1.0" encoding="utf-8"?>
<!-- Generator: Adobe Illustrator 21.0.0, SVG Export Plug-In . SVG Version: 6.00 Build 0)  -->
<svg version="1.1" id="图层_1" xmlns="http://www.w3.org/2000/svg" xmlns:xlink="http://www.w3.org/1999/xlink" x="0px" y="0px"
	 viewBox="0 0 250 250" style="enable-background:new 0 0 250 250;" xml:space="preserve">
<style type="text/css">
	.st0{fill:#BFC3C6;}
</style>
<g id="ss">
	<path id="形状" class="st0" d="M106.6,2C48.9,2,2,48.8,2,106.4C2,164,48.9,210.8,106.6,210.8c57.7,0,104.6-46.8,104.6-104.4
		C211.3,48.8,164.3,2,106.6,2z M106.6,190.1c-46.2,0-83.1-37.6-83.1-82.9c0-46.1,37.7-82.9,83.1-82.9s83.1,37.6,83.1,82.9
		C190.5,152.4,152.8,190.1,106.6,190.1z M245.1,229.2l-33.9-33.8c-4.6-4.6-11.5-4.6-15.4,0c-3.8,4.6-4.6,11.5,0,15.4l33.9,33.8
		c4.6,4.6,11.5,4.6,15.4,0C249,239.9,249,233,245.1,229.2z"/>
</g>
</svg>
